<svg data-name="Ebene 1" xmlns="http://www.w3.org/2000/svg" width="459.9" height="95.13" viewBox="0 0 459.9 95.13"><path d="M84.54 11.22l-6.08 3.12c7.41 14.13 2.35 34.78-13.32 49.78C53.8 75 39.42 80.88 19.52 81v14.17c23.38 0 41.11-9.6 54.32-22.52C92.85 54 97.45 27.22 84.54 11.22z" fill="#00bdff"/><circle cx="10.46" cy="54.94" r="9.68" fill="#ed1e79"/><path d="M43.28 40.17c5.84-5.72 6.75-14.11 2-18.73s-13.26-3.74-19.1 2-6.74 14.11-2 18.73 13.27 3.73 19.1-2z" fill="#6ddc00"/><path d="M65.69 11.42C54.49.45 32.27 2.77 17.76 17a36.69 36.69 0 00-8.94 14.28h4.45c1.12-4.22 3.92-8.35 7.52-11.88C31.12 9.26 46.65 7.53 54.62 15.34S61.18 37.86 50.85 48c-6.19 6.08-14.44 9.19-21.42 9v12.57a48.65 48.65 0 0030.26-12.48c14.94-13.79 17.19-34.7 6-45.67z" fill="#00bdff"/><path d="M136.17 46.71c7.16 0 11.27-3.82 11.27-9.45v-.19c0-6.29-4.4-9.53-11.56-9.53h-14.6v19.17zm-29.58-32.42h30.54c8.49 0 15.07 2.38 19.45 6.77 3.73 3.72 5.74 9 5.74 15.25v.2c0 10.77-5.83 17.54-14.31 20.68L164.33 81h-17.18l-14.3-21.36h-11.57V81h-14.69V14.29zM226.4 47.85v-.19c0-11.44-8.4-21-20.23-21s-20 9.34-20 20.79v.19c0 11.44 8.4 21 20.24 21s20-9.33 20-20.78zm-55.64 0v-.19c0-19 15-34.51 35.6-34.51s35.4 15.35 35.4 34.32v.19c0 19-15 34.5-35.59 34.5s-35.41-15.34-35.41-34.31zm272.97 0v-.19c0-11.44-8.39-21-20.22-21s-20 9.34-20 20.79v.19c0 11.44 8.4 21 20.22 21s20-9.33 20-20.78zm-55.63 0v-.19c0-19 15-34.51 35.59-34.51S459.1 28.5 459.1 47.47v.19c0 19-15 34.5-35.59 34.5S388.1 66.82 388.1 47.85zM250.69 14.29h15.84l17.57 28.22 17.55-28.22h15.85v66.73h-14.6V37.47l-18.8 28.49h-.38l-18.61-28.21v43.27h-14.42V14.29zm79.97 0h50.39v13.07h-35.8v13.53h31.49v13.06h-31.49v14.02h36.27v13.05h-50.86V14.29z" fill="#fff"/></svg>