<svg version="1.1" id="Ebene_2_1_" xmlns="http://www.w3.org/2000/svg" x="0" y="0" viewBox="0 0 200 200" xml:space="preserve"><style>.st0{fill:rgba(255,255,255,.16)}</style><path class="st0" d="M151.6 48.9l-10.7 9.5c11.6 40.6-23.7 79.1-73.9 79.2v17.5c60.6 5.2 103.9-51.9 84.6-106.2zM44 105.4c0-6.6 5.3-11.9 11.9-11.9s11.9 5.3 11.9 11.9c0 6.6-5.3 11.9-11.9 11.9S44 112 44 105.4m52.4-18.2c7.2-7.1 8.3-17.4 2.5-23.1s-16.4-4.6-23.6 2.5S67 84 72.8 89.7c5.9 5.7 16.5 4.6 23.6-2.5z"/><path class="st0" d="M124.1 51.7C110.3 38.2 82.9 41 65 58.6c-5 4.9-8.8 11-11 17.6h5.5c1.8-5.6 5-10.7 9.3-14.7 12.7-12.5 31.9-14.7 41.8-5s8.1 27.8-4.7 40.3c-7 7-16.5 11-26.4 11.1v15.5c13.9-.7 27-6.1 37.3-15.4 18.4-17 21.1-42.8 7.3-56.3z"/></svg>