<svg version="1.1" id="Ebene_1" xmlns="http://www.w3.org/2000/svg" x="0" y="0" viewBox="0 0 120 120" xml:space="preserve"><style>.st0{fill:#00bdff}</style><path class="st0" d="M114.4 7l-11.3 10.1c12.2 43-25 83.7-78.1 83.8v18.5C89 124.8 134.8 64.5 114.4 7z"/><path d="M.6 66.8c0-7 5.7-12.6 12.6-12.6s12.6 5.7 12.6 12.6-5.7 12.6-12.6 12.6S.6 73.8.6 66.8" fill="#ed1e79"/><path d="M56.1 47.5c7.6-7.5 8.8-18.4 2.7-24.5s-17.3-4.9-24.9 2.6-8.9 18.5-2.7 24.5c6.1 6.1 17.4 4.9 24.9-2.6z" fill="#6ddc00"/><path class="st0" d="M85.3 10C70.7-4.3 41.7-1.3 22.8 17.3c-5.3 5.2-9.3 11.6-11.7 18.6h5.8c1.9-5.9 5.2-11.3 9.8-15.5C40.2 7.2 60.5 4.9 70.9 15.1s8.6 29.4-5 42.6c-7.4 7.4-17.5 11.7-28 11.8v16.4c14.6-.7 28.6-6.5 39.5-16.3C97 51.6 100 24.3 85.3 10z"/></svg>